<svg xmlns="http://www.w3.org/2000/svg" viewBox="0 0 936 936"><defs><style>.cls-1{fill:#29abe2;}.cls-2{fill:#4bc2e2;}.cls-3,.cls-9{fill:none;}.cls-4{fill:#171b2d;}.cls-5,.cls-6{fill:#ffbc00;stroke:#ffbc00;}.cls-5,.cls-6,.cls-9{stroke-miterlimit:10;}.cls-5{stroke-width:5px;}.cls-7{fill:#c68642;}.cls-8{fill:#fff;}.cls-9{stroke:#000;stroke-width:13.18px;}</style></defs><g id="Layer_2" data-name="Layer 2"><g id="Layer_1-2" data-name="Layer 1"><rect class="cls-1" width="936" height="936"/><polygon class="cls-2" points="324 936 936 108 936 0 828 0 0 612 0 936 324 936"/><polygon class="cls-2" points="0 396 720 0 360 0 0 72 0 396"/><polygon class="cls-2" points="864 936 936 576 936 216 540 936 864 936"/><rect class="cls-3" width="936" height="936"/><rect class="cls-4" x="241.23" y="131.87" width="453.24" height="671.69" rx="12.93" transform="translate(-193.7 469.24) rotate(-45.12)"/><line class="cls-5" x1="234.13" y1="391.67" x2="404.4" y2="220.67"/><line class="cls-5" x1="373.57" y1="529.82" x2="543.84" y2="358.81"/><rect class="cls-6" x="284.36" y="315.9" width="102.72" height="31.89" transform="translate(-136.32 334.59) rotate(-45)"/><rect class="cls-6" x="300.45" y="346.37" width="139.31" height="31.89" transform="translate(-147.8 367.83) rotate(-45)"/><rect class="cls-6" x="370.89" y="379.87" width="60.57" height="31.89" transform="translate(-162.38 399.61) rotate(-45)"/><rect class="cls-6" x="322.92" y="407.04" width="231.31" height="31.89" transform="translate(-170.64 434.01) rotate(-45)"/><rect class="cls-6" x="378.44" y="478.65" width="232.02" height="12.19" transform="translate(-197.95 491.61) rotate(-45)"/><rect class="cls-6" x="448.24" y="489.63" width="121.63" height="12.19" transform="translate(-201.43 505.15) rotate(-45)"/><ellipse class="cls-4" cx="369.13" cy="559.9" rx="169.68" ry="100.36" transform="translate(-283.34 404.9) rotate(-43.24)"/><path class="cls-7" d="M183.56,505.12,132.19,643.88a286.51,286.51,0,0,1-91,125.3L0,801V936H171l25.13-32.6q39.48-47.65,81.64-93l71.52-76.9L315.24,635Z"/><path class="cls-7" d="M547.82,512c10.42-9.62,10.67-26.32.54-37.29h0c-10.13-11-26.8-12.06-37.22-2.43l-126,114.33c-.7.62-5.77-4.07-5.09-4.73L520.21,448.79c10.48-9.67,10.72-26.45.55-37.47s-26.92-12.11-37.4-2.44L342,537.7c-.71.62-5.9-5.06-5.23-5.72L450.4,424.24c10.42-9.62,10.66-26.3.54-37.26l-.2-.23c-10.12-11-26.77-12-37.19-2.42L212.92,563.22l-11.27-13.77-80.5,140,107.59,182.6,72.33-52.45A942.18,942.18,0,0,0,445.61,690.18l84.82-93.42a19.56,19.56,0,0,0,.83-27.65h0a19.56,19.56,0,0,0-27.63-1.37l-98,90.1c-.71.63-5.28-4.31-4.61-5Z"/><rect class="cls-4" x="111.58" y="686.16" width="77.37" height="232.12" rx="16.35" transform="translate(-535.22 359.23) rotate(-46.52)"/><circle class="cls-8" cx="151.31" cy="805.33" r="77.37"/><line class="cls-9" x1="120.74" y1="776.75" x2="156.17" y2="810.14"/><line class="cls-9" x1="180.31" y1="774.87" x2="146.92" y2="810.3"/></g></g></svg>